<svg xmlns="http://www.w3.org/2000/svg" viewBox="0 0 270 200" preserveAspectRatio="xMidYMid meet" style=" transform: translate3d(0px, 0px, 0px);"><defs><clipPath id="__lottie_element_113"><rect width="270" height="200" x="0" y="0"></rect></clipPath></defs><g clip-path="url(#__lottie_element_113)"><g transform="matrix(0.9999938011169434,0.0035173732321709394,-0.0035173732321709394,0.9999938011169434,24.416168212890625,39.61531066894531)" opacity="1" style="display: block;"><g opacity="1" transform="matrix(1,0,0,1,66.69100189208984,112.43599700927734)"><path stroke-linecap="round" stroke-linejoin="round" fill-opacity="0"  stroke-opacity="1" stroke-width="5" d=" M-38.37900161743164,-27.624000549316406 C-38.37900161743164,-27.624000549316406 -50.369998931884766,-10.348999977111816 -52.512001037597656,17.920000076293945 M-29.812000274658203,-7.706999778747559 C-29.812000274658203,-7.706999778747559 -32.09600067138672,8.925000190734863 -27.742000579833984,21.09600067138672 M-1.2100000381469727,-12.847999572753906 C-1.2100000381469727,-12.847999572753906 -1.9190000295639038,3.683000087738037 1.0410000085830688,11.081999778747559"></path></g></g><g transform="matrix(0.9988505244255066,-0.04793374240398407,0.04793374240398407,0.9988505244255066,6.830573081970215,37.334354400634766)" opacity="1" style="display: block;"><g opacity="1" transform="matrix(1,0,0,1,70.0260009765625,40.16699981689453)"><path stroke-linecap="round" stroke-linejoin="round" fill-opacity="0"  stroke-opacity="1" stroke-width="5" d=" M-36.46900177001953,15.609999656677246 C-33.78900146484375,-2.5179998874664307 -18.986000061035156,-15.609999656677246 -0.11299999803304672,-15.609999656677246 C17.663999557495117,-15.609999656677246 32.55799865722656,-3.2679998874664307 36.46900177001953,13.314000129699707"></path></g><g opacity="1" transform="matrix(1,0,0,1,38.702999114990234,75.39900207519531)"><path stroke-linecap="round" stroke-linejoin="round" fill-opacity="0"  stroke-opacity="1" stroke-width="5" d=" M-12.831000328063965,-12.291999816894531 C-9.78499984741211,-15.545000076293945 -5.895999908447266,-18.458999633789062 -5.895999908447266,-18.458999633789062 C-5.895999908447266,-18.458999633789062 0.765999972820282,-17.9689998626709 7.210000038146973,-6.843999862670898 C14.845999717712402,6.336999893188477 10.956000328063965,15.869999885559082 10.956000328063965,15.869999885559082 C10.956000328063965,15.869999885559082 -1.3919999599456787,17.986000061035156 -1.3919999599456787,17.986000061035156 C-2.75,18.45800018310547 -11.225000381469727,15.470000267028809 -14.845999717712402,4.656000137329102"></path></g><g opacity="1" transform="matrix(1,0,0,1,34.130001068115234,80.26599884033203)"><path stroke-linecap="round" stroke-linejoin="round" fill-opacity="0"  stroke-opacity="1" stroke-width="5" d=" M-6.127999782562256,-14.02299976348877 C-4.51200008392334,-13.734999656677246 0.41100001335144043,-9.65999984741211 3.5789999961853027,-3.940000057220459 C7.540999889373779,3.2130000591278076 8.314000129699707,10.458000183105469 5.306000232696533,12.239999771118164 C2.2980000972747803,14.02299976348877 -4.3520002365112305,11.668999671936035 -8.314000129699707,4.515999794006348"></path></g><g opacity="1" transform="matrix(1,0,0,1,55.893001556396484,47.58700180053711)"><path stroke-linecap="round" stroke-linejoin="round" fill-opacity="0"  stroke-opacity="1" stroke-width="5" d=" M-32.31800079345703,-7.684000015258789 C-37.483001708984375,-0.4009999930858612 -43.125999450683594,6.071000099182129 -43.23099899291992,10.199000358581543 C-43.393001556396484,16.500999450683594 -37.00299835205078,24.638999938964844 -33.0369987487793,31.125999450683594 C-31.871000289916992,33.03200149536133 -29.93600082397461,35.08700180053711 -25.506000518798828,31.392000198364258 C-23.714000701904297,30.235000610351562 -23.163000106811523,27.874000549316406 -24.2450008392334,26.03700065612793 C-28.180999755859375,19.354000091552734 -37.643001556396484,3.615999937057495 -34.948001861572266,-2.259999990463257 C-19.892000198364258,-35.08700180053711 16.184999465942383,-35.05500030517578 16.797000885009766,-34.89699935913086 C20.150999069213867,-34.034000396728516 30.11400032043457,-33.30699920654297 43.393001556396484,-22.389999389648438"></path></g><g opacity="1" transform="matrix(1,0,0,1,78.5479965209961,84.00299835205078)"><path stroke-linecap="round" stroke-linejoin="round" fill-opacity="0"  stroke-opacity="1" stroke-width="5" d=" M29.704999923706055,-14.87600040435791 C29.784000396728516,0.5630000233650208 10.454999923706055,14.87600040435791 -8.192999839782715,14.87600040435791 C-16.229000091552734,14.87600040435791 -23.673999786376953,13.175000190734863 -29.783000946044922,8.880000114440918"></path></g><g opacity="1" transform="matrix(1,0,0,1,104.41100311279297,63.7760009765625)"><path stroke-linecap="round" stroke-linejoin="round" fill-opacity="0"  stroke-opacity="1" stroke-width="5" d=" M2.1710000038146973,-10.72599983215332 C0.35100001096725464,-4.015999794006348 -9.524999618530273,5.089000225067139 -9.28499984741211,6.048999786376953 C-8.857000350952148,7.763000011444092 -3.7890000343322754,10.72599983215332 -3.7890000343322754,10.72599983215332 C-3.7890000343322754,10.72599983215332 2.6710000038146973,8.192000389099121 9.524999618530273,-3.371999979019165"></path></g><g opacity="1" transform="matrix(1,0,0,1,107.0479965209961,43.64500045776367)"><path stroke-linecap="round" stroke-linejoin="round" fill-opacity="0"  stroke-opacity="1" stroke-width="5" d=" M-13.920999526977539,-12.581000328063965 C-13.920999526977539,-12.581000328063965 -7.888999938964844,-16.507999420166016 -4.676000118255615,-16.507999420166016 C-1.4639999866485596,-16.507999420166016 12.206999778747559,-4.978000164031982 13.920999526977539,8.656000137329102 C13.920999526977539,8.656000137329102 11.277000427246094,12.439000129699707 7.172999858856201,16.507999420166016"></path></g></g><g transform="matrix(0.9624767899513245,-0.2713640630245209,0.2713640630245209,0.9624767899513245,17.294496536254883,61.555721282958984)" opacity="1" style="display: block;"><g opacity="1" transform="matrix(1,0,0,1,55.902000427246094,26.14699935913086)"><path stroke-linecap="round" stroke-linejoin="round" fill-opacity="0"  stroke-opacity="1" stroke-width="3" d=" M-21.874000549316406,7.710999965667725 C-21.874000549316406,7.710999965667725 -11.223999977111816,9.918000221252441 -11.223999977111816,9.918000221252441 M-14.717000007629395,3.694000005722046 C-14.717000007629395,3.694000005722046 -18.381999969482422,13.9350004196167 -18.381999969482422,13.9350004196167 M-4.5289998054504395,-0.9390000104904175 C-4.5289998054504395,-0.9390000104904175 4.531000137329102,0.9390000104904175 4.531000137329102,0.9390000104904175 M1.559000015258789,-4.355000019073486 C1.559000015258789,-4.355000019073486 -1.559000015258789,4.355000019073486 -1.559000015258789,4.355000019073486"></path></g><g opacity="1" transform="matrix(0.9700000286102295,0,0,0.9700000286102295,1.6870765686035156,1.5309295654296875)"><g opacity="1" transform="matrix(1,0,0,1,59.11399841308594,53.290000915527344)"><path stroke-linecap="round" stroke-linejoin="round" fill-opacity="0"  stroke-opacity="1" stroke-width="3" d=" M-23.770999908447266,4.288000106811523 C-23.770999908447266,4.288000106811523 -10.63599967956543,-16.555999755859375 15.383000373840332,-19.018999099731445 C15.383000373840332,-19.018999099731445 23.770999908447266,3.003000020980835 10.60099983215332,10.892000198364258 C-2.9700000286102295,19.018999099731445 -16.381999969482422,12.961000442504883 -23.770999908447266,4.288000106811523z"></path></g><g opacity="1" transform="matrix(1,0,0,1,68.80400085449219,51.76100158691406)"><path stroke-linecap="round" stroke-linejoin="round" fill-opacity="0"  stroke-opacity="1" stroke-width="3" d=" M-20.283815383911133,13.578226089477539 C-20.283815383911133,13.578226089477539 -20.54279327392578,1.0587643384933472 -6.08779239654541,2.6997642517089844 M-8.585792541503906,1.9147642850875854 C-8.585792541503906,1.9147642850875854 -4.849456310272217,-5.52262544631958 7.5705437660217285,-4.238625526428223"></path></g><g opacity="1" transform="matrix(1,0,0,1,56.42100143432617,50.45800018310547)"><path  fill-opacity="1" d=" M-7.88100004196167,16.406999588012695 C-7.01800012588501,11.4399995803833 -4.5077924728393555,4.509764194488525 0.5032075643539429,3.961764335632324 C1.4332075119018555,3.860764265060425 2.4312076568603516,3.85176420211792 3.202207565307617,3.3207643032073975 C3.8242075443267822,2.8927643299102783 4.190207481384277,2.1947643756866455 4.585207462310791,1.5517643690109253 C7.228207588195801,-2.7432355880737305 15.045543670654297,-3.458625316619873 20.084543228149414,-3.277625322341919 C20.496543884277344,-7.960625171661377 19.118999481201172,-11.91100025177002 17.743999481201172,-16.406999588012695 C8.255999565124512,-13.446000099182129 -1.4850000143051147,-10.352999687194824 -9.206999778747559,-4.0929999351501465 C-11.199000358581543,-2.4779999256134033 -13.026000022888184,-0.6710000038146973 -14.75,1.225000023841858 C-16.104000091552734,2.7139999866485596 -19.13800048828125,5.23799991607666 -19.30900001525879,7.369999885559082 C-19.618000030517578,11.229000091552734 -10.786999702453613,15.163000106811523 -7.88100004196167,16.406999588012695z"></path></g></g></g><g transform="matrix(0.7379437685012817,-0.674862265586853,0.674862265586853,0.7379437685012817,63.73228073120117,39.406986236572266)" opacity="1" style="display: block;"><g opacity="0.020976413531747642" transform="matrix(0.0009963404154404998,0,0,0.0009963404154404998,7.172999858856201,22.53756332397461)"><path  fill-opacity="1" d=" M-2.8389999866485596,-2.7730000019073486 C-1.1610000133514404,-4.295000076293945 1.7089999914169312,-4.804999828338623 3.8480000495910645,-4.059999942779541 C5.863999843597412,-3.3570001125335693 6.922999858856201,-0.8299999833106995 6.249000072479248,1.1959999799728394 C5.576000213623047,3.2230000495910645 3.4519999027252197,4.581999778747559 1.3170000314712524,4.633999824523926 C0.3449999988079071,4.6579999923706055 -0.6169999837875366,4.447000026702881 -1.5859999656677246,4.348999977111816 C-3.4230000972747803,4.164000034332275 -5.150000095367432,4.574999809265137 -6.922999858856201,4.804999828338623 C-6.823999881744385,2.428999900817871 -4.565999984741211,-1.2059999704360962 -2.8389999866485596,-2.7730000019073486z"></path></g><g opacity="0" transform="matrix(0.11084103584289551,0,0,0.11084103584289551,14.869301795959473,26.229581832885742)"><path  fill-opacity="1" d=" M0.10300000011920929,-4.718999862670898 C2.3499999046325684,-5.010000228881836 4.997000217437744,-3.7880001068115234 6.326000213623047,-1.9539999961853027 C7.578999996185303,-0.22499999403953552 7.002999782562256,2.453000068664551 5.291999816894531,3.7320001125335693 C3.5820000171661377,5.010000228881836 1.062000036239624,4.9120001792907715 -0.718999981880188,3.734999895095825 C-1.531999945640564,3.197999954223633 -2.200000047683716,2.4749999046325684 -2.938999891281128,1.8420000076293945 C-4.340000152587891,0.6399999856948853 -5.992000102996826,-0.009999999776482582 -7.578999996185303,-0.8339999914169312 C-6.139999866485596,-2.7269999980926514 -2.2100000381469727,-4.420000076293945 0.10300000011920929,-4.718999862670898z"></path></g><g opacity="0.000996340338517999" transform="matrix(0.10089670121669769,0,0,0.10089670121669769,13.478006362915039,20.992338180541992)"><path  fill-opacity="1" d=" M-0.9599999785423279,-4.144000053405762 C1.1490000486373901,-4.96999979019165 4.013000011444092,-4.425000190734863 5.747000217437744,-2.9670000076293945 C7.381999969482422,-1.593000054359436 7.4720001220703125,1.1449999809265137 6.120999813079834,2.7990000247955322 C4.769999980926514,4.453000068664551 2.302999973297119,4.968999862670898 0.289000004529953,4.257999897003174 C-0.6290000081062317,3.934000015258789 -1.4529999494552612,3.3940000534057617 -2.322999954223633,2.9579999446868896 C-3.9739999771118164,2.13100004196167 -5.732999801635742,1.9019999504089355 -7.4730000495910645,1.4859999418258667 C-6.534999847412109,-0.6990000009536743 -3.131999969482422,-3.2939999103546143 -0.9599999785423279,-4.144000053405762z"></path></g></g><g transform="matrix(0.9983209371566772,-0.057925134897232056,0.057925134897232056,0.9983209371566772,74.29768371582031,94.66769409179688)" opacity="1" style="display: block;"><g opacity="1" transform="matrix(1,0,0,1,54.74300003051758,39.858001708984375)"><path stroke-linecap="round" stroke-linejoin="round" fill-opacity="0"  stroke-opacity="1" stroke-width="5" d=" M-27.67340850830078,-6.559190273284912 C-13.412409782409668,-6.733190536499023 10.47700023651123,-14.473999977111816 10.47700023651123,-14.473999977111816 C10.47700023651123,-14.473999977111816 21.613000869750977,-22.18199920654297 31.035999298095703,-24.753000259399414 C40.45800018310547,-27.322999954223633 46.0260009765625,-27.357999801635742 46.0260009765625,-27.357999801635742 C46.0260009765625,-27.357999801635742 52.45100021362305,-20.898000717163086 43.02799987792969,-18.756999969482422 C33.60499954223633,-16.614999771118164 30.17799949645996,-14.473999977111816 30.17799949645996,-14.473999977111816 C30.17799949645996,-14.473999977111816 30.25,-9.333999633789062 30.25,-9.333999633789062 M39.165000915527344,-15.968000411987305 C39.165000915527344,-15.968000411987305 43.055999755859375,-11.220999717712402 41.80699920654297,-6.117000102996826 C40.867000579833984,-2.2809998989105225 29.812999725341797,1.9140000343322754 23.816999435424805,1.4850000143051147 C17.820999145507812,1.055999994277954 -17.254329681396484,17.566396713256836 -42.524330139160156,13.28439712524414"></path></g></g><g transform="matrix(1,0,0,1,147.0469970703125,46.146995544433594)" opacity="1" style="display: block;"><g opacity="1" transform="matrix(1,0,0,1,60.74300003051758,66.9520034790039)"><path  fill-opacity="1" d=" M57.99300003051758,-66.68900299072266 C57.99300003051758,-66.68900299072266 46.513999938964844,-66.68900299072266 46.513999938964844,-66.68900299072266 C46.33300018310547,-66.68900299072266 46.15599822998047,-66.66699981689453 45.98500061035156,-66.62999725341797 C45.729000091552734,-66.67900085449219 45.46699905395508,-66.7020034790039 45.20100021362305,-66.66899871826172 C45.20100021362305,-66.66899871826172 -57.10300064086914,-53.75600051879883 -57.10300064086914,-53.75600051879883 C-58.33100128173828,-53.60100173950195 -59.26100158691406,-52.569000244140625 -59.28799819946289,-51.33100128173828 C-59.28799819946289,-51.33100128173828 -60.46200180053711,-12.411280632019043 -60.46200180053711,-12.411280632019043 C-60.49300003051758,-11.030280113220215 -59.39899826049805,-9.887280464172363 -58.01900100708008,-9.856280326843262 C-57.999000549316406,-9.855279922485352 -57.98099899291992,-9.855279922485352 -57.96200180053711,-9.855279922485352 C-56.608001708984375,-9.855279922485352 -55.49399948120117,-10.93828010559082 -55.4640007019043,-12.300280570983887 C-55.4640007019043,-12.300280570983887 -54.3380012512207,-49.064998626708984 -54.3380012512207,-49.064998626708984 C-54.3380012512207,-49.064998626708984 43.0099983215332,-61.35300064086914 43.0099983215332,-61.35300064086914 C43.0099983215332,-61.35300064086914 42.84600067138672,29.964000701904297 42.84600067138672,29.964000701904297 C42.84600067138672,29.964000701904297 -52.09400177001953,29.964000701904297 -52.09400177001953,29.964000701904297 C-53.474998474121094,29.964000701904297 -54.59400177001953,31.08300018310547 -54.59400177001953,32.4640007019043 C-54.59400177001953,33.845001220703125 -53.474998474121094,34.9640007019043 -52.09400177001953,34.9640007019043 C-52.09400177001953,34.9640007019043 -24.950000762939453,34.9640007019043 -24.950000762939453,34.9640007019043 C-24.950000762939453,34.9640007019043 -25.05500030517578,49.875999450683594 -25.05500030517578,49.875999450683594 C-25.05500030517578,49.875999450683594 -42.9640007019043,49.875999450683594 -42.9640007019043,49.875999450683594 C-44.340999603271484,49.875999450683594 -45.45899963378906,50.98899841308594 -45.4640007019043,52.367000579833984 C-45.4640007019043,52.367000579833984 -45.50699996948242,64.19300079345703 -45.50699996948242,64.19300079345703 C-45.50899887084961,64.85700225830078 -45.24700164794922,65.49600219726562 -44.77799987792969,65.96700286865234 C-44.308998107910156,66.43699645996094 -43.672000885009766,66.7020034790039 -43.00699996948242,66.7020034790039 C-43.00699996948242,66.7020034790039 23.948999404907227,66.7020034790039 23.948999404907227,66.7020034790039 C25.329999923706055,66.7020034790039 26.448999404907227,65.58300018310547 26.448999404907227,64.2020034790039 C26.448999404907227,64.2020034790039 26.448999404907227,34.9640007019043 26.448999404907227,34.9640007019043 C26.448999404907227,34.9640007019043 45.340999603271484,34.9640007019043 45.340999603271484,34.9640007019043 C45.73500061035156,34.9640007019043 46.10200119018555,34.86399841308594 46.433998107910156,34.70199966430664 C46.433998107910156,34.70199966430664 57.99300003051758,34.70199966430664 57.99300003051758,34.70199966430664 C59.374000549316406,34.70199966430664 60.49300003051758,33.58300018310547 60.49300003051758,32.20199966430664 C60.49300003051758,32.20199966430664 60.49300003051758,-64.18900299072266 60.49300003051758,-64.18900299072266 C60.49300003051758,-65.56900024414062 59.374000549316406,-66.68900299072266 57.99300003051758,-66.68900299072266z M-40.472999572753906,54.875999450683594 C-40.472999572753906,54.875999450683594 -22.57200050354004,54.875999450683594 -22.57200050354004,54.875999450683594 C-22.57200050354004,54.875999450683594 -11.267999649047852,54.875999450683594 -11.267999649047852,54.875999450683594 C-9.88700008392334,54.875999450683594 -8.767999649047852,53.75699996948242 -8.767999649047852,52.375999450683594 C-8.767999649047852,50.994998931884766 -9.88700008392334,49.875999450683594 -11.267999649047852,49.875999450683594 C-11.267999649047852,49.875999450683594 -20.05500030517578,49.875999450683594 -20.05500030517578,49.875999450683594 C-20.05500030517578,49.875999450683594 -19.950000762939453,34.9640007019043 -19.950000762939453,34.9640007019043 C-19.950000762939453,34.9640007019043 9.710000038146973,34.9640007019043 9.710000038146973,34.9640007019043 C9.710000038146973,34.9640007019043 9.710000038146973,61.70199966430664 9.710000038146973,61.70199966430664 C9.710000038146973,61.70199966430664 -40.49800109863281,61.70199966430664 -40.49800109863281,61.70199966430664 C-40.49800109863281,61.70199966430664 -40.472999572753906,54.875999450683594 -40.472999572753906,54.875999450683594z M21.448999404907227,61.70199966430664 C21.448999404907227,61.70199966430664 14.710000038146973,61.70199966430664 14.710000038146973,61.70199966430664 C14.710000038146973,61.70199966430664 14.710000038146973,34.9640007019043 14.710000038146973,34.9640007019043 C14.710000038146973,34.9640007019043 21.448999404907227,34.9640007019043 21.448999404907227,34.9640007019043 C21.448999404907227,34.9640007019043 21.448999404907227,61.70199966430664 21.448999404907227,61.70199966430664z M55.49300003051758,29.70199966430664 C55.49300003051758,29.70199966430664 47.84600067138672,29.70199966430664 47.84600067138672,29.70199966430664 C47.84600067138672,29.70199966430664 48.0099983215332,-61.68899917602539 48.0099983215332,-61.68899917602539 C48.0099983215332,-61.68899917602539 55.49300003051758,-61.68899917602539 55.49300003051758,-61.68899917602539 C55.49300003051758,-61.68899917602539 55.49300003051758,29.70199966430664 55.49300003051758,29.70199966430664z"></path></g></g></g></svg>
