<svg xmlns="http://www.w3.org/2000/svg" viewBox="0 0 270 200" preserveAspectRatio="xMidYMid meet" style="transform: translate3d(0px, 0px, 0px);"><defs><clipPath id="__lottie_element_96"><rect width="270" height="200" x="0" y="0"></rect></clipPath></defs><g clip-path="url(#__lottie_element_96)"><g transform="matrix(1,0,0,1,35.310997009277344,62.060997009277344)" opacity="1" style="display: block;"><g opacity="1" transform="matrix(0.9986295104026794,-0.0523359552025795,0.0523359552025795,0.9986295104026794,73.90435028076172,47.097328186035156)"><path stroke-linecap="round" stroke-linejoin="round" fill-opacity="0"  stroke-opacity="1" stroke-width="5" d=" M15.357000350952148,33.68899917602539 C11.583000183105469,26.035999298095703 9.041000366210938,-6.271999835968018 4.789999961853027,-10.746999740600586 C2.069000005722046,-10.76200008392334 -2.8420000076293945,-10.789999961853027 -2.8420000076293945,-10.789999961853027 C-5.989999771118164,-16.531999588012695 -3.4119999408721924,-22.875999450683594 -3.4119999408721924,-22.875999450683594 C-5.275000095367432,-22.378999710083008 -11.144000053405762,-21.631999969482422 -12.772000312805176,-21.986000061035156 C-17.261999130249023,-22.964000701904297 -16.363000869750977,-29.04599952697754 -15.890999794006348,-29.976999282836914 C-15.248000144958496,-31.246000289916992 3.068000078201294,-33.68899917602539 6.876999855041504,-32.395999908447266 C10.685999870300293,-31.10300064086914 17.261999130249023,-25.415000915527344 17.261999130249023,-25.415000915527344"></path></g><g opacity="1" transform="matrix(1,0,0,1,36.95199966430664,83.27200317382812)"><path stroke-linecap="round" stroke-linejoin="round" fill-opacity="0"  stroke-opacity="1" stroke-width="5" d=" M48.4370002746582,-29.076000213623047 C41.92499923706055,-33.275001525878906 34.573001861572266,-38.01599884033203 26.889999389648438,-37.01300048828125 C23.538000106811523,-36.57500076293945 2.3889999389648438,-33.89500045776367 -2.6659998893737793,-31.834999084472656 C-14.656999588012695,-26.945999145507812 -27.26298713684082,-2.957951545715332 -27.576990127563477,20.654027938842773 C-27.576990127563477,20.654027938842773 -18.03396224975586,29.688976287841797 9.948037147521973,23.623977661132812 C9.948037147521973,23.623977661132812 6.690022945404053,31.86297607421875 16.858022689819336,33.191978454589844 C16.858022689819336,33.191978454589844 9.173023223876953,34.63098907470703 9.173023223876953,34.63098907470703 C9.173023223876953,34.63098907470703 5.765020370483398,38.698001861572266 11.753023147583008,40.93498992919922 C19.737010955810547,43.91697311401367 26.781023025512695,40.630977630615234 26.781023025512695,40.630977630615234 C26.781023025512695,40.630977630615234 28.737030029296875,23.66698455810547 24.63703727722168,19.075977325439453 C20.276046752929688,14.191970825195312 -7.291032314300537,6.062023162841797 -7.291032314300537,6.062023162841797 M-6.09003210067749,6.069023132324219 C-6.0760321617126465,3.5250229835510254 -3.28798246383667,-7.516984462738037 -0.7229824662208557,-11.318984031677246 C-0.7229824662208557,-11.318984031677246 2.453031301498413,-5.6159749031066895 4.340031147003174,-1.7889751195907593"></path></g></g><g transform="matrix(1,0,0,1,122.10000610351562,39.129005432128906)" opacity="1" style="display: block;"><g opacity="1" transform="matrix(1,0,0,1,63.52000045776367,152.61199951171875)"><path  fill-opacity="1" d=" M1.069000005722046,-3.696000099182129 C-0.26600000262260437,-4.066999912261963 -1.6399999856948853,-3.2880001068115234 -2.009999990463257,-1.9589999914169312 C-2.009999990463257,-1.9589999914169312 -2.805000066757202,0.8949999809265137 -2.805000066757202,0.8949999809265137 C-3.1760001182556152,2.2249999046325684 -2.3980000019073486,3.6040000915527344 -1.0679999589920044,3.9739999771118164 C-0.8429999947547913,4.035999774932861 -0.6179999709129333,4.066999912261963 -0.3959999978542328,4.066999912261963 C0.6990000009536743,4.066999912261963 1.7029999494552612,3.3420000076293945 2.009999990463257,2.236999988555908 C2.009999990463257,2.236999988555908 2.805999994277954,-0.6169999837875366 2.805999994277954,-0.6169999837875366 C3.177000045776367,-1.9470000267028809 2.3989999294281006,-3.3259999752044678 1.069000005722046,-3.696000099182129z"></path></g><g opacity="1" transform="matrix(1,0,0,1,54.29199981689453,80.08499908447266)"><path  fill-opacity="1" d=" M0.6499999761581421,-1.9769999980926514 C0.6499999761581421,-1.9769999980926514 0.640999972820282,-1.9769999980926514 0.640999972820282,-1.9769999980926514 C0.24300000071525574,-1.9759999513626099 0.10899999737739563,-1.9850000143051147 -0.012000000104308128,-1.996000051498413 C-0.17100000381469727,-2.009000062942505 -0.3179999887943268,-2.0220000743865967 -0.6489999890327454,-2.0230000019073486 C-0.6489999890327454,-2.0230000019073486 -0.652999997138977,-2.0230000019073486 -0.652999997138977,-2.0230000019073486 C-1.7549999952316284,-2.0230000019073486 -2.6510000228881836,-1.128999948501587 -2.6530001163482666,-0.027000000700354576 C-2.6549999713897705,1.0789999961853027 -1.7610000371932983,1.975000023841858 -0.6570000052452087,1.9769999980926514 C-0.5009999871253967,1.9769999980926514 -0.43299999833106995,1.9830000400543213 -0.35899999737739563,1.9900000095367432 C-0.18299999833106995,2.003999948501587 0.008999999612569809,2.0230000019073486 0.546999990940094,2.0230000019073486 C0.546999990940094,2.0230000019073486 0.6589999794960022,2.0230000019073486 0.6589999794960022,2.0230000019073486 C1.7630000114440918,2.0179998874664307 2.6549999713897705,1.11899995803833 2.6500000953674316,0.014000000432133675 C2.6449999809265137,-1.0870000123977661 1.7510000467300415,-1.9769999980926514 0.6499999761581421,-1.9769999980926514z"></path></g><g opacity="1" transform="matrix(1,0,0,1,52.89099884033203,71.23899841308594)"><path  fill-opacity="1" d=" M-23.83099937438965,16.131000518798828 C-23.83099937438965,16.131000518798828 -22.95199966430664,16.427000045776367 -22.95199966430664,16.427000045776367 C-13.399999618530273,19.656999588012695 -3.4860000610351562,21.006000518798828 5.098999977111816,21.006000518798828 C12.309000015258789,21.006000518798828 18.58099937438965,20.054000854492188 22.913000106811523,18.464000701904297 C22.913000106811523,18.464000701904297 23.709999084472656,18.17099952697754 23.709999084472656,18.17099952697754 C23.709999084472656,18.17099952697754 23.868999481201172,17.336999893188477 23.868999481201172,17.336999893188477 C24.31999969482422,14.967000007629395 22.867000579833984,8.371999740600586 19.77400016784668,5.925000190734863 C19.014999389648438,5.323999881744385 18.097000122070312,5.243000030517578 17.195999145507812,5.295000076293945 C17.18600082397461,5.1020002365112305 17.174999237060547,4.908999919891357 17.132999420166016,4.710999965667725 C17.06999969482422,4.418000221252441 13.824000358581543,-1.9780000448226929 11.062000274658203,-2.121999979019165 C10.354999542236328,-2.1589999198913574 9.524999618530273,-2.186000108718872 8.645999908447266,-2.2019999027252197 C9.52299976348877,-4.257999897003174 9.52400016784668,-7.034999847412109 7.198999881744385,-10.621000289916992 C4.9670000076293945,-14.062999725341797 -2.068000078201294,-18.211999893188477 -2.861999988555908,-18.673999786376953 C-2.861999988555908,-18.673999786376953 -6.875,-21.006000518798828 -6.875,-21.006000518798828 C-6.875,-21.006000518798828 -4.986000061035156,-16.766000747680664 -4.986000061035156,-16.766000747680664 C-3.821000099182129,-14.152999877929688 -2.759999990463257,-8.527999877929688 -7.083000183105469,-5.941999912261963 C-7.895999908447266,-5.454999923706055 -10.526000022888184,-4.873000144958496 -12.446000099182129,-4.447999954223633 C-16.108999252319336,-3.63700008392334 -17.292999267578125,-3.3369998931884766 -17.839000701904297,-2.428999900817871 C-18.547000885009766,-1.2510000467300415 -18.554000854492188,2.0380001068115234 -17.67799949645996,4.565000057220459 C-17.79599952697754,4.565999984741211 -17.913000106811523,4.559999942779541 -18.031999588012695,4.561999797821045 C-18.679000854492188,4.577000141143799 -19.43000030517578,4.629000186920166 -20.145000457763672,5.059000015258789 C-20.920000076293945,5.5279998779296875 -21.340999603271484,6.269000053405762 -21.6200008392334,6.86299991607666 C-21.6200008392334,6.86299991607666 -21.68400001525879,6.999000072479248 -21.68400001525879,6.999000072479248 C-22.733999252319336,9.225000381469727 -24.31999969482422,12.59000015258789 -23.95800018310547,15.211999893188477 C-23.95800018310547,15.211999893188477 -23.83099937438965,16.131000518798828 -23.83099937438965,16.131000518798828z M-18.969999313354492,8.277000427246094 C-18.969999313354492,8.277000427246094 -18.9060001373291,8.140000343322754 -18.9060001373291,8.140000343322754 C-18.714000701904297,7.732999801635742 -18.617000579833984,7.644000053405762 -18.597000122070312,7.630000114440918 C-18.492000579833984,7.573999881744385 -18.0939998626709,7.565000057220459 -17.961999893188477,7.561999797821045 C-15.20300006866455,7.4710001945495605 -12.51200008392334,8.144000053405762 -9.64799976348877,8.831000328063965 C-9.64799976348877,8.831000328063965 -8.616999626159668,9.076000213623047 -8.616999626159668,9.076000213623047 C-7.809999942779541,9.265999794006348 -7.004000186920166,8.765999794006348 -6.814000129699707,7.960000038146973 C-6.623000144958496,7.1539998054504395 -7.123000144958496,6.3460001945495605 -7.929999828338623,6.156000137329102 C-7.929999828338623,6.156000137329102 -8.949000358581543,5.913000106811523 -8.949000358581543,5.913000106811523 C-10.654000282287598,5.504000186920166 -12.397000312805176,5.0960001945495605 -14.17300033569336,4.835999965667725 C-14.17300033569336,4.835999965667725 -14.175999641418457,4.833000183105469 -14.175999641418457,4.833000183105469 C-15.071000099182129,4.27400016784668 -15.57699966430664,0.6179999709129333 -15.335000038146973,-0.6420000195503235 C-14.63700008392334,-0.8899999856948853 -13.02299976348877,-1.246999979019165 -11.79699993133545,-1.5190000534057617 C-8.76200008392334,-2.190999984741211 -6.685999870300293,-2.683000087738037 -5.541999816894531,-3.368000030517578 C-1.5920000076293945,-5.730999946594238 -0.5090000033378601,-9.989999771118164 -1.0889999866485596,-13.994999885559082 C1.156000018119812,-12.46399974822998 3.697999954223633,-10.505999565124512 4.681000232696533,-8.98900032043457 C7.241000175476074,-5.041999816894531 6.065000057220459,-3.066999912261963 4.75600004196167,-1.7860000133514404 C4.75600004196167,-1.7860000133514404 2.0869998931884766,0.8220000267028809 2.0869998931884766,0.8220000267028809 C2.0869998931884766,0.8220000267028809 5.818999767303467,0.7860000133514404 5.818999767303467,0.7860000133514404 C7.526000022888184,0.7680000066757202 9.416000366210938,0.800000011920929 10.779999732971191,0.8669999837875366 C11.647000312805176,1.3489999771118164 13.637999534606934,4.369999885559082 14.21500015258789,5.466000080108643 C14.21399974822998,5.551000118255615 14.182999610900879,5.5980000495910645 14.140000343322754,5.6539998054504395 C13.878999710083008,5.98799991607666 12.529000282287598,7.0960001945495605 6.14900016784668,7.309000015258789 C5.321000099182129,7.336999893188477 4.672999858856201,8.029999732971191 4.699999809265137,8.857999801635742 C4.7270002365112305,9.670000076293945 5.392000198364258,10.307999610900879 6.197999954223633,10.307999610900879 C6.215000152587891,10.307999610900879 6.23199987411499,10.307999610900879 6.249000072479248,10.307000160217285 C10.715999603271484,10.159000396728516 13.668000221252441,9.560999870300293 15.383999824523926,8.465999603271484 C15.765000343322754,8.447999954223633 16.143999099731445,8.416999816894531 16.514999389648438,8.371999740600586 C16.97599983215332,8.317999839782715 17.746999740600586,8.22599983215332 17.913000106811523,8.277999877929688 C19.656999588012695,9.657999992370605 20.88599967956543,13.812000274658203 20.96500015258789,15.96399974822998 C9.446999549865723,19.75 -8.795999526977539,17.812999725341797 -20.988000869750977,13.916000366210938 C-20.804000854492188,12.168000221252441 -19.68400001525879,9.791000366210938 -18.969999313354492,8.277000427246094z"></path></g><g opacity="1" transform="matrix(1,0,0,1,56.137001037597656,75.80899810791016)"><path  fill-opacity="1" d=" M53.974998474121094,-53.106998443603516 C53.974998474121094,-53.106998443603516 44.45100021362305,-56.055999755859375 44.45100021362305,-56.055999755859375 C44.44499969482422,-56.05799865722656 44.4379997253418,-56.05799865722656 44.430999755859375,-56.06100082397461 C44.29600143432617,-56.10200119018555 44.159000396728516,-56.12900161743164 44.01900100708008,-56.14400100708008 C43.95600128173828,-56.152000427246094 43.89500045776367,-56.15299987792969 43.83300018310547,-56.15700149536133 C43.779998779296875,-56.15700149536133 43.72700119018555,-56.17100143432617 43.67300033569336,-56.167999267578125 C43.67300033569336,-56.167999267578125 30.070999145507812,-55.95399856567383 30.070999145507812,-55.95399856567383 C30.070999145507812,-55.95399856567383 32.5099983215332,-72.63899993896484 32.5099983215332,-72.63899993896484 C32.61399841308594,-73.3550033569336 32.40399932861328,-74.08100128173828 31.93199920654297,-74.62999725341797 C31.459999084472656,-75.17900085449219 30.77400016784668,-75.49600219726562 30.049999237060547,-75.5 C30.049999237060547,-75.5 19.340999603271484,-75.55899810791016 19.340999603271484,-75.55899810791016 C19.340999603271484,-75.55899810791016 19.32699966430664,-75.55899810791016 19.32699966430664,-75.55899810791016 C18.111000061035156,-75.55899810791016 17.06999969482422,-74.68299865722656 16.863000869750977,-73.48300170898438 C16.863000869750977,-73.48300170898438 13.809000015258789,-55.698001861572266 13.809000015258789,-55.698001861572266 C13.809000015258789,-55.698001861572266 -6.603000164031982,-55.37699890136719 -6.603000164031982,-55.37699890136719 C-6.603000164031982,-55.37699890136719 -3.552000045776367,-71.42400360107422 -3.552000045776367,-71.42400360107422 C-3.4130001068115234,-72.15299987792969 -3.6050000190734863,-72.90699768066406 -4.077000141143799,-73.4800033569336 C-4.550000190734863,-74.0530014038086 -5.250999927520752,-74.38700103759766 -5.993000030517578,-74.39099884033203 C-5.993000030517578,-74.39099884033203 -15.25100040435791,-74.44200134277344 -15.25100040435791,-74.44200134277344 C-15.25100040435791,-74.44200134277344 -15.263999938964844,-74.44200134277344 -15.263999938964844,-74.44200134277344 C-16.445999145507812,-74.44200134277344 -17.468000411987305,-73.61399841308594 -17.711000442504883,-72.45700073242188 C-17.711000442504883,-72.45700073242188 -21.31399917602539,-55.32500076293945 -21.31399917602539,-55.32500076293945 C-21.32699966430664,-55.26499938964844 -21.325000762939453,-55.20600128173828 -21.333999633789062,-55.145999908447266 C-21.333999633789062,-55.145999908447266 -32.900001525878906,-54.9640007019043 -32.900001525878906,-54.9640007019043 C-34.058998107910156,-54.94599914550781 -35.05400085449219,-54.13399887084961 -35.30400085449219,-53.00299835205078 C-35.30400085449219,-53.00299835205078 -55.59600067138672,39.10499954223633 -55.59600067138672,39.10499954223633 C-55.887001037597656,40.42900085449219 -55.071998596191406,41.74300003051758 -53.757999420166016,42.069000244140625 C-53.757999420166016,42.069000244140625 -41.61600112915039,45.08700180053711 -41.61600112915039,45.08700180053711 C-41.61600112915039,45.08700180053711 -44.729000091552734,59.96799850463867 -44.729000091552734,59.96799850463867 C-45.012001037597656,61.319000244140625 -44.14500045776367,62.643001556396484 -42.79399871826172,62.926998138427734 C-42.62099838256836,62.9630012512207 -42.44900131225586,62.97999954223633 -42.279998779296875,62.97999954223633 C-41.12099838256836,62.97999954223633 -40.082000732421875,62.16999816894531 -39.834999084472656,60.99100112915039 C-39.834999084472656,60.99100112915039 -37.73699951171875,50.96500015258789 -37.73699951171875,50.96500015258789 C-37.69200134277344,50.97800064086914 -37.650001525878906,51 -37.604000091552734,51.01100158691406 C-37.604000091552734,51.01100158691406 -31.989999771118164,52.35499954223633 -31.989999771118164,52.35499954223633 C-31.989999771118164,52.35499954223633 -34.02899932861328,61.737998962402344 -34.02899932861328,61.737998962402344 C-34.321998596191406,63.0880012512207 -33.465999603271484,64.41899871826172 -32.117000579833984,64.71299743652344 C-31.937000274658203,64.7509994506836 -31.760000228881836,64.7699966430664 -31.583999633789062,64.7699966430664 C-30.43199920654297,64.7699966430664 -29.39699935913086,63.97100067138672 -29.142000198364258,62.80099868774414 C-29.142000198364258,62.80099868774414 -27.125999450683594,53.52000045776367 -27.125999450683594,53.52000045776367 C-27.125999450683594,53.52000045776367 -6.060999870300293,58.564998626708984 -6.060999870300293,58.564998626708984 C-6.013999938964844,58.57699966430664 -5.968999862670898,58.573001861572266 -5.921999931335449,58.582000732421875 C-5.921999931335449,58.582000732421875 -8.625,72.58599853515625 -8.625,72.58599853515625 C-8.88700008392334,73.94100189208984 -7.999000072479248,75.25299835205078 -6.64300012588501,75.51399993896484 C-6.482999801635742,75.54499816894531 -6.323999881744385,75.55899810791016 -6.166999816894531,75.55899810791016 C-4.993000030517578,75.55899810791016 -3.946000099182129,74.72799682617188 -3.7149999141693115,73.53299713134766 C-3.7149999141693115,73.53299713134766 -0.1940000057220459,55.29800033569336 -0.1940000057220459,55.29800033569336 C-0.1940000057220459,55.29800033569336 8.87399959564209,58.21500015258789 8.87399959564209,58.21500015258789 C8.87399959564209,58.21500015258789 7.173999786376953,67.68800354003906 7.173999786376953,67.68800354003906 C6.931000232696533,69.0469970703125 7.834000110626221,70.34700012207031 9.194000244140625,70.59100341796875 C9.343000411987305,70.61699676513672 9.491000175476074,70.62999725341797 9.637999534606934,70.62999725341797 C10.824999809265137,70.62999725341797 11.878000259399414,69.78099822998047 12.095999717712402,68.57099914550781 C12.095999717712402,68.57099914550781 13.677000045776367,59.7599983215332 13.677000045776367,59.7599983215332 C13.677000045776367,59.7599983215332 25.106000900268555,63.435001373291016 25.106000900268555,63.435001373291016 C25.108999252319336,63.43600082397461 25.111000061035156,63.43600082397461 25.113000869750977,63.4370002746582 C25.113000869750977,63.4370002746582 25.14299964904785,63.446998596191406 25.14299964904785,63.446998596191406 C25.281999588012695,63.492000579833984 25.423999786376953,63.520999908447266 25.56800079345703,63.54100036621094 C25.57900047302246,63.542999267578125 25.59000015258789,63.547000885009766 25.60300064086914,63.54899978637695 C25.60300064086914,63.54899978637695 36.40599822998047,64.87999725341797 36.40599822998047,64.87999725341797 C36.5099983215332,64.89199829101562 36.612998962402344,64.89800262451172 36.71500015258789,64.89800262451172 C37.93899917602539,64.89800262451172 39.00400161743164,64.0009994506836 39.18600082397461,62.7599983215332 C39.18600082397461,62.7599983215332 55.70899963378906,-50.356998443603516 55.70899963378906,-50.356998443603516 C55.887001037597656,-51.57500076293945 55.152000427246094,-52.742000579833984 53.974998474121094,-53.106998443603516z M21.433000564575195,-70.5479965209961 C21.433000564575195,-70.5479965209961 27.14699935913086,-70.51599884033203 27.14699935913086,-70.51599884033203 C27.14699935913086,-70.51599884033203 25.006999969482422,-55.874000549316406 25.006999969482422,-55.874000549316406 C25.006999969482422,-55.874000549316406 18.895999908447266,-55.77799987792969 18.895999908447266,-55.77799987792969 C18.895999908447266,-55.77799987792969 21.433000564575195,-70.5479965209961 21.433000564575195,-70.5479965209961z M-13.23799991607666,-69.43099975585938 C-13.23799991607666,-69.43099975585938 -9.024999618530273,-69.40799713134766 -9.024999618530273,-69.40799713134766 C-9.024999618530273,-69.40799713134766 -11.708999633789062,-55.297000885009766 -11.708999633789062,-55.297000885009766 C-11.708999633789062,-55.297000885009766 -16.22599983215332,-55.22600173950195 -16.22599983215332,-55.22600173950195 C-16.22599983215332,-55.22600173950195 -13.23799991607666,-69.43099975585938 -13.23799991607666,-69.43099975585938z M-35.89799880981445,33.152000427246094 C-35.89799880981445,33.152000427246094 -37.75299835205078,40.89500045776367 -37.75299835205078,40.89500045776367 C-37.75299835205078,40.89500045776367 -50.18899917602539,37.80500030517578 -50.18899917602539,37.80500030517578 C-50.18899917602539,37.80500030517578 -30.84600067138672,-49.99599838256836 -30.84600067138672,-49.99599838256836 C-30.84600067138672,-49.99599838256836 40.7869987487793,-51.12200164794922 40.7869987487793,-51.12200164794922 C40.7869987487793,-51.12200164794922 23.886999130249023,57.79100036621094 23.886999130249023,57.79100036621094 C23.886999130249023,57.79100036621094 -1.3600000143051147,49.67100143432617 -1.3600000143051147,49.67100143432617 C-1.3600000143051147,49.67100143432617 0.5080000162124634,41.87200164794922 0.5080000162124634,41.87200164794922 C0.6620000004768372,41.22700119018555 0.5540000200271606,40.54800033569336 0.2070000022649765,39.981998443603516 C-0.13899999856948853,39.417999267578125 -0.6959999799728394,39.013999938964844 -1.3420000076293945,38.858001708984375 C-1.3420000076293945,38.858001708984375 -32.8849983215332,31.30299949645996 -32.8849983215332,31.30299949645996 C-33.529998779296875,31.148000717163086 -34.20899963378906,31.256999969482422 -34.77299880981445,31.60300064086914 C-35.3380012512207,31.950000762939453 -35.74300003051758,32.50699996948242 -35.89799880981445,33.152000427246094z M-34.007999420166016,46.72999954223633 C-34.007999420166016,46.72999954223633 -31.618000030517578,36.74800109863281 -31.618000030517578,36.74800109863281 C-31.618000030517578,36.74800109863281 -4.936999797821045,43.138999938964844 -4.936999797821045,43.138999938964844 C-4.936999797821045,43.138999938964844 -7.327000141143799,53.119998931884766 -7.327000141143799,53.119998931884766 C-7.327000141143799,53.119998931884766 -34.007999420166016,46.72999954223633 -34.007999420166016,46.72999954223633z M34.59199905395508,59.61800003051758 C34.59199905395508,59.61800003051758 28.774999618530273,58.9010009765625 28.774999618530273,58.9010009765625 C28.774999618530273,58.9010009765625 45.737998962402344,-50.42300033569336 45.737998962402344,-50.42300033569336 C45.737998962402344,-50.42300033569336 50.45199966430664,-48.9630012512207 50.45199966430664,-48.9630012512207 C50.45199966430664,-48.9630012512207 34.59199905395508,59.61800003051758 34.59199905395508,59.61800003051758z"></path></g></g><g transform="matrix(1,0,0,1,158.83599853515625,82.78399658203125)" opacity="1" style="display: block;"><g opacity="1" transform="matrix(1,0,0,1,3.447999954223633,10.29800033569336)"><path stroke-linecap="round" stroke-linejoin="miter" fill-opacity="0" stroke-miterlimit="10"  stroke-opacity="1" stroke-width="3" d="M0 0"></path></g></g><g transform="matrix(0.9816271662712097,0.1908089965581894,-0.1908089965581894,0.9816271662712097,38.5026969909668,27.80126190185547)" opacity="1" style="display: block;"><g opacity="1" transform="matrix(1,0,0,1,39.82899856567383,40.10300064086914)"><path stroke-linecap="round" stroke-linejoin="round" fill-opacity="0"  stroke-opacity="1" stroke-width="5" d=" M27.312999725341797,11.222999572753906 C23.136999130249023,21.01300048828125 13.388999938964844,27.60300064086914 1.6369999647140503,27.538999557495117 C-14.031999588012695,27.45199966430664 -27.32900047302246,15.567000389099121 -27.243999481201172,0.18199999630451202 C-27.159000396728516,-15.201000213623047 -14.387999534606934,-27.60300064086914 1.281000018119812,-27.517000198364258 C13.032999992370605,-27.45199966430664 23.07699966430664,-20.381000518798828 27.32900047302246,-10.359999656677246"></path></g><g opacity="1" transform="matrix(1,0,0,1,31.910999298095703,30.886999130249023)"><path  fill-opacity="1" d=" M6.783999919891357,0.03700000047683716 C6.763000011444092,3.7839999198913574 3.7079999446868896,6.803999900817871 -0.03799999877810478,6.7829999923706055 C-3.7850000858306885,6.763000011444092 -6.804999828338623,3.7090001106262207 -6.784999847412109,-0.03799999877810478 C-6.763999938964844,-3.7839999198913574 -3.7100000381469727,-6.804999828338623 0.035999998450279236,-6.783999919891357 C3.7829999923706055,-6.763999938964844 6.804999828338623,-3.7100000381469727 6.783999919891357,0.03700000047683716z"></path></g><g opacity="1" transform="matrix(1,0,0,1,31.910999298095703,30.886999130249023)"><path  fill-opacity="1" d=" M22.884000778198242,-2.305999994277954 C22.875999450683594,-0.800000011920929 21.648000717163086,0.41499999165534973 20.142000198364258,0.4059999883174896 C18.63599967956543,0.39800000190734863 17.422000885009766,-0.8299999833106995 17.43000030517578,-2.3359999656677246 C17.437999725341797,-3.8420000076293945 18.666000366210938,-5.056000232696533 20.172000885009766,-5.047999858856201 C21.67799949645996,-5.039000034332275 22.892000198364258,-3.812000036239624 22.884000778198242,-2.305999994277954z"></path></g><g opacity="1" transform="matrix(1,0,0,1,42.722999572753906,40.904998779296875)"><path stroke-linecap="round" stroke-linejoin="round" fill-opacity="0"  stroke-opacity="1" stroke-width="3" d=" M9.616000175476074,-5.419000148773193 C9.616000175476074,-5.419000148773193 -1.2589999437332153,-1.1069999933242798 -9.616000175476074,5.419000148773193"></path></g><g opacity="1" transform="matrix(1,0,0,1,49.415000915527344,47.04800033569336)"><path stroke-linecap="round" stroke-linejoin="round" fill-opacity="0"  stroke-opacity="1" stroke-width="3" d=" M-6.313000202178955,-7.133999824523926 C-6.313000202178955,-7.133999824523926 -2.361999988555908,-2.24399995803833 -2.2239999771118164,-2.174999952316284 M-0.7620000243186951,-9.038999557495117 C-0.7620000243186951,-9.038999557495117 10.510000228881836,-0.2750000059604645 2.2679998874664307,5.051000118255615 C-3.9040000438690186,9.038999557495117 -8.154000282287598,2.9070000648498535 -10.510000228881836,-4.564000129699707"></path></g></g><g transform="matrix(0.9978952407836914,0.06484581530094147,-0.06484581530094147,0.9978952407836914,107.03093719482422,9.36561107635498)" opacity="0.856808420765547" style="display: block;"><g opacity="1" transform="matrix(1,0,0,1,22.954999923706055,24)"><path  fill-opacity="1" d=" M-22.70400047302246,35.04199981689453 C-22.70400047302246,35.04199981689453 -13.197999954223633,29.138999938964844 -13.197999954223633,29.138999938964844 C-12.71399974822998,28.839000701904297 -12.538000106811523,28.152999877929688 -12.819000244140625,27.663000106811523 C-12.819000244140625,27.663000106811523 -16.07699966430664,21.974000930786133 -16.07699966430664,21.974000930786133 C-16.36199951171875,21.476999282836914 -16.176000595092773,20.7810001373291 -15.680999755859375,20.48699951171875 C-15.680999755859375,20.48699951171875 -6.270999908447266,14.154000282287598 -6.270999908447266,14.154000282287598 C-6.270999908447266,14.154000282287598 -10.717000007629395,5.826000213623047 -10.717000007629395,5.826000213623047 C-10.717000007629395,5.826000213623047 -20.01300048828125,18.503999710083008 -20.01300048828125,18.503999710083008 C-20.4689998626709,18.805999755859375 -20.63800048828125,19.454999923706055 -20.385000228881836,19.93600082397461 C-20.385000228881836,19.93600082397461 -16.378999710083008,27.56999969482422 -16.378999710083008,27.56999969482422 C-16.163000106811523,27.979999542236328 -16.25200080871582,28.527000427246094 -16.589000701904297,28.868000030517578 C-16.589000701904297,28.868000030517578 -22.70400047302246,35.04199981689453 -22.70400047302246,35.04199981689453z M5.890999794006348,-20.909000396728516 C-4.193999767303467,-23.75 -15.005999565124512,-16.691999435424805 -18.260000228881836,-5.144999980926514 C-21.51300048828125,6.4029998779296875 -15.975000381469727,18.066999435424805 -5.890999794006348,20.909000396728516 C4.193999767303467,23.75 15.005999565124512,16.691999435424805 18.259000778198242,5.144000053405762 C21.51300048828125,-6.4039998054504395 15.975000381469727,-18.06800079345703 5.890999794006348,-20.909000396728516z M-1.9589999914169312,15.39799976348877 C-3.7179999351501465,15.39799976348877 -5.14900016784668,13.965999603271484 -5.14900016784668,12.208000183105469 C-5.14900016784668,10.447999954223633 -3.7179999351501465,9.017999649047852 -1.9589999914169312,9.017999649047852 C-0.20000000298023224,9.017999649047852 1.2309999465942383,10.447999954223633 1.2309999465942383,12.208000183105469 C1.2309999465942383,13.965999603271484 -0.20000000298023224,15.39799976348877 -1.9589999914169312,15.39799976348877z M7.734000205993652,-3.875 C7.132999897003174,-0.03700000047683716 4.650000095367432,1.152999997138977 3.005000114440918,1.9420000314712524 C2.6630001068115234,2.1059999465942383 2.3450000286102295,2.2249999046325684 2.055000066757202,2.3329999446868896 C0.9380000233650208,2.749000072479248 0.47600001096725464,2.9210000038146973 0.47600001096725464,5.414000034332275 C0.47600001096725464,6.690000057220459 -0.5630000233650208,7.729000091552734 -1.840000033378601,7.729000091552734 C-3.117000102996826,7.729000091552734 -4.15500020980835,6.690000057220459 -4.15500020980835,5.414000034332275 C-4.15500020980835,-0.010999999940395355 -1.7029999494552612,-1.062000036239624 0.2669999897480011,-1.9049999713897705 C0.5189999938011169,-2.0139999389648438 0.7670000195503235,-2.119999885559082 1.0049999952316284,-2.2339999675750732 C2.4100000858306885,-2.9089999198913574 2.934999942779541,-3.1610000133514404 3.1600000858306885,-4.5920000076293945 C3.681999921798706,-7.922999858856201 2.8459999561309814,-9.038999557495117 1.8650000095367432,-9.75 C1.2999999523162842,-10.15999984741211 0.6539999842643738,-10.213000297546387 0.04699999839067459,-9.902999877929688 C-1.1269999742507935,-9.303000450134277 -1.684999942779541,-8.682999610900879 -1.684999942779541,-6.7820000648498535 C-1.684999942779541,-5.505000114440918 -2.7239999771118164,-4.4670000076293945 -4,-4.4670000076293945 C-5.2769999504089355,-4.4670000076293945 -6.315000057220459,-5.505000114440918 -6.315000057220459,-6.7820000648498535 C-6.315000057220459,-10.243000030517578 -4.9629998207092285,-12.545000076293945 -2.058000087738037,-14.027000427246094 C0.11500000208616257,-15.135000228881836 2.5969998836517334,-14.937000274658203 4.581999778747559,-13.50100040435791 C7.438000202178955,-11.430000305175781 8.439000129699707,-8.371000289916992 7.734000205993652,-3.875z"></path></g></g></g></svg>
