<svg xmlns="http://www.w3.org/2000/svg" viewBox="0 0 270 200" preserveAspectRatio="xMidYMid meet" style="transform: translate3d(0px, 0px, 0px);"><defs><clipPath id="__lottie_element_59"><rect width="270" height="200" x="0" y="0"></rect></clipPath></defs><g clip-path="url(#__lottie_element_59)"><g transform="matrix(1,0,0,1,33.15599822998047,101.04399108886719)" opacity="1" style="display: block;"><g opacity="1" transform="matrix(1,0,0,1,54.08100128173828,41.117000579833984)"><path stroke-linecap="butt" stroke-linejoin="miter" fill-opacity="0" stroke-miterlimit="10"  stroke-opacity="1" stroke-width="5" d=" M-38.83100128173828,28.867000579833984 C-38.441001892089844,15.942000389099121 -39.73699951171875,-3.1610000133514404 -34.96900177001953,-10.800999641418457 C-27.232999801635742,-23.197999954223633 0.5809999704360962,-28.236000061035156 0.5809999704360962,-28.236000061035156 C12.345000267028809,-28.617000579833984 21.385000228881836,-23.009000778198242 27.822999954223633,-20.530000686645508 C29.513999938964844,-19.878999710083008 33,-17.674999237060547 34.84600067138672,-17.826000213623047 C36.75899887084961,-17.983999252319336 38.58549499511719,-21.66392707824707 40.21149826049805,-22.62892723083496"></path></g><g opacity="1" transform="matrix(1,0,0,1,38.6619987487793,53.731998443603516)"><path stroke-linecap="butt" stroke-linejoin="miter" fill-opacity="0" stroke-miterlimit="10"  stroke-opacity="1" stroke-width="5" d=" M-8.9399995803833,14.390000343322754 C-8.9399995803833,12.711000442504883 -9.543999671936035,-2.375999927520752 -7.770999908447266,-12.741000175476074 C-7.551000118255615,-14.027000427246094 -5.88100004196167,-14.390000343322754 -5.1519999504089355,-13.307999610900879 C-5.1519999504089355,-13.307999610900879 4.5289998054504395,-3.3980000019073486 9.543999671936035,12.765000343322754"></path></g></g><g transform="matrix(1,0,0,1,161.57200622558594,-1.2700004577636719)" opacity="1" style="display: block;"><g opacity="1" transform="matrix(1,0,0,1,74.8280029296875,41.332000732421875)"><path stroke-linecap="round" stroke-linejoin="miter" fill-opacity="0" stroke-miterlimit="10"  stroke-opacity="1" stroke-width="4" d="M0 0"></path></g></g><g transform="matrix(0.9939523935317993,0.10981171578168869,-0.10981171578168869,0.9939523935317993,123.61382293701172,20.19806671142578)" opacity="1" style="display: block;"><g opacity="1" transform="matrix(1,0,0,1,60.529998779296875,50.90700149536133)"><path  fill-opacity="1" d=" M-25.777000427246094,6.021999835968018 C-26.493000030517578,6.021999835968018 -27.128000259399414,5.506999969482422 -27.253999710083008,4.7779998779296875 C-27.395000457763672,3.9609999656677246 -26.847999572753906,3.184999942779541 -26.031999588012695,3.0439999103546143 C-26.031999588012695,3.0439999103546143 25.520000457763672,-5.880000114440918 25.520000457763672,-5.880000114440918 C26.339000701904297,-6.021999835968018 27.113000869750977,-5.473999977111816 27.253000259399414,-4.658999919891357 C27.395000457763672,-3.8420000076293945 26.847000122070312,-3.065999984741211 26.0310001373291,-2.924999952316284 C26.0310001373291,-2.924999952316284 -25.520000457763672,6 -25.520000457763672,6 C-25.60700035095215,6.014999866485596 -25.691999435424805,6.021999835968018 -25.777000427246094,6.021999835968018z"></path></g><g opacity="1" transform="matrix(1,0,0,1,62.93199920654297,68.91300201416016)"><path  fill-opacity="1" d=" M-25.777000427246094,6.0229997634887695 C-26.493000030517578,6.0229997634887695 -27.128000259399414,5.507999897003174 -27.253999710083008,4.7789998054504395 C-27.395000457763672,3.9619998931884766 -26.847999572753906,3.186000108718872 -26.031999588012695,3.0450000762939453 C-26.031999588012695,3.0450000762939453 25.520000457763672,-5.880000114440918 25.520000457763672,-5.880000114440918 C26.34000015258789,-6.0229997634887695 27.113000869750977,-5.473999977111816 27.253000259399414,-4.6579999923706055 C27.395000457763672,-3.8420000076293945 26.847000122070312,-3.065000057220459 26.0310001373291,-2.924999952316284 C26.0310001373291,-2.924999952316284 -25.520000457763672,6.000999927520752 -25.520000457763672,6.000999927520752 C-25.60700035095215,6.015999794006348 -25.691999435424805,6.0229997634887695 -25.777000427246094,6.0229997634887695z"></path></g><g opacity="1" transform="matrix(1,0,0,1,66.53299713134766,86.91799926757812)"><path  fill-opacity="1" d=" M-25.777000427246094,6.025000095367432 C-26.493000030517578,6.025000095367432 -27.128000259399414,5.510000228881836 -27.253999710083008,4.781000137329102 C-27.395000457763672,3.9639999866485596 -26.847999572753906,3.187999963760376 -26.031999588012695,3.046999931335449 C-26.031999588012695,3.046999931335449 25.520000457763672,-5.877999782562256 25.520000457763672,-5.877999782562256 C26.336999893188477,-6.025000095367432 27.11199951171875,-5.4730000495910645 27.253000259399414,-4.6570000648498535 C27.395000457763672,-3.8399999141693115 26.847000122070312,-3.063999891281128 26.0310001373291,-2.9230000972747803 C26.0310001373291,-2.9230000972747803 -25.520000457763672,6.002999782562256 -25.520000457763672,6.002999782562256 C-25.60700035095215,6.01800012588501 -25.691999435424805,6.025000095367432 -25.777000427246094,6.025000095367432z"></path></g><g opacity="1" transform="matrix(1,0,0,1,65.25599670410156,68.87000274658203)"><path  fill-opacity="1" d=" M55.23500061035156,-17.613000869750977 C50.611000061035156,-30.239999771118164 45.56999969482422,-42.67599868774414 45.52000045776367,-42.79999923706055 C45.52000045776367,-42.79999923706055 45.45600128173828,-42.94300079345703 45.45600128173828,-42.94300079345703 C45.33000183105469,-43.19499969482422 44.138999938964844,-45.42599868774414 41.143001556396484,-46.28099822998047 C38.14699935913086,-47.13600158691406 34.53300094604492,-46.2859992980957 30.416000366210938,-43.750999450683594 C30.416000366210938,-43.750999450683594 29.204999923706055,-43.00699996948242 29.204999923706055,-43.00699996948242 C29.204999923706055,-43.00699996948242 31.09000015258789,-34.4379997253418 31.09000015258789,-34.4379997253418 C27.513999938964844,-30.625 14.13700008392334,-14.36299991607666 25.430999755859375,4.9039998054504395 C29.639999389648438,12.083000183105469 35.00299835205078,16.368999481201172 41.38399887084961,17.674999237060547 C41.38399887084961,17.674999237060547 46.7859992980957,42.25299835205078 46.7859992980957,42.25299835205078 C46.7859992980957,42.25299835205078 -33.691001892089844,51.499000549316406 -33.691001892089844,51.499000549316406 C-33.691001892089844,51.499000549316406 -50.60499954223633,-42.382999420166016 -50.60499954223633,-42.382999420166016 C-50.60499954223633,-42.382999420166016 -33.198001861572266,-45.19900131225586 -33.198001861572266,-45.19900131225586 C-33.191001892089844,-45.47600173950195 -33.18899917602539,-45.75199890136719 -33.198001861572266,-46.02899932861328 C-33.20600128173828,-46.32400131225586 -33.23400115966797,-46.61600112915039 -33.25600051879883,-46.90999984741211 C-33.257999420166016,-46.935001373291016 -33.257999420166016,-46.944000244140625 -33.2599983215332,-46.96200180053711 C-33.26300048828125,-46.979000091552734 -33.26599884033203,-46.987998962402344 -33.270999908447266,-47.013999938964844 C-33.30099868774414,-47.16600036621094 -33.32500076293945,-47.31999969482422 -33.35900115966797,-47.472999572753906 C-33.41899871826172,-47.74700164794922 -33.492000579833984,-48.01900100708008 -33.58000183105469,-48.2859992980957 C-33.590999603271484,-48.316001892089844 -33.645999908447266,-48.46699905395508 -33.678001403808594,-48.55799865722656 C-33.707000732421875,-48.624000549316406 -33.74100112915039,-48.70000076293945 -33.750999450683594,-48.72200012207031 C-33.88399887084961,-48.9900016784668 -34.04499816894531,-49.237998962402344 -34.20399856567383,-49.4900016784668 C-34.215999603271484,-49.507999420166016 -34.21900177001953,-49.51499938964844 -34.22700119018555,-49.527000427246094 C-34.2400016784668,-49.540000915527344 -34.24599838256836,-49.54600143432617 -34.26499938964844,-49.56399917602539 C-34.35300064086914,-49.65399932861328 -34.43299865722656,-49.750999450683594 -34.52199935913086,-49.84000015258789 C-34.58300018310547,-49.902000427246094 -34.64899826049805,-49.959999084472656 -34.7130012512207,-50.01900100708008 C-34.7130012512207,-50.01900100708008 -38.93600082397461,-49.33599853515625 -38.93600082397461,-49.33599853515625 C-39.52000045776367,-53.62900161743164 -38.334999084472656,-57.04800033569336 -36.62799835205078,-57.44900131225586 C-35.733001708984375,-57.65599822998047 -34.57899856567383,-57.069000244140625 -33.47800064086914,-55.82400131225586 C-32.159000396728516,-54.332000732421875 -31.06999969482422,-52.060001373291016 -30.490999221801758,-49.5890007019043 C-29.30900001525879,-44.54600143432617 -30.575000762939453,-40.27399826049805 -32.49599838256836,-39.823001861572266 C-33.303001403808594,-39.63399887084961 -33.803001403808594,-38.82699966430664 -33.61399841308594,-38.02000045776367 C-33.45100021362305,-37.32899856567383 -32.834999084472656,-36.862998962402344 -32.154998779296875,-36.862998962402344 C-32.04100036621094,-36.862998962402344 -31.926000595092773,-36.875 -31.81100082397461,-36.90299987792969 C-28.729999542236328,-37.625 -26.92799949645996,-41.41299819946289 -27.042999267578125,-46.19499969482422 C-27.042999267578125,-46.19499969482422 -10.420999526977539,-48.88399887084961 -10.420999526977539,-48.88399887084961 C-10.420000076293945,-48.89099884033203 -10.416999816894531,-48.89799880981445 -10.414999961853027,-48.904998779296875 C-10.350000381469727,-49.19300079345703 -10.298999786376953,-49.481998443603516 -10.244999885559082,-49.77199935913086 C-10.241000175476074,-49.79899978637695 -10.23900032043457,-49.80699920654297 -10.236000061035156,-49.82500076293945 C-10.234999656677246,-49.82899856567383 -10.234999656677246,-49.83000183105469 -10.234999656677246,-49.834999084472656 C-10.218999862670898,-49.98099899291992 -10.20199966430664,-50.12699890136719 -10.190999984741211,-50.27399826049805 C-10.142999649047852,-50.87300109863281 -10.13700008392334,-51.47700119018555 -10.189000129699707,-52.07699966430664 C-10.199999809265137,-52.20899963378906 -10.300999641418457,-52.731998443603516 -10.194000244140625,-52.178001403808594 C-10.218999862670898,-52.3120002746582 -10.239999771118164,-52.448001861572266 -10.267999649047852,-52.582000732421875 C-10.322999954223633,-52.84400177001953 -10.392000198364258,-53.10200119018555 -10.47700023651123,-53.35499954223633 C-10.515000343322754,-53.46900177001953 -10.699999809265137,-53.858001708984375 -10.46500015258789,-53.37099838256836 C-10.520999908447266,-53.486000061035156 -10.571000099182129,-53.60300064086914 -10.630000114440918,-53.715999603271484 C-10.663999557495117,-53.779998779296875 -10.706000328063965,-53.83599853515625 -10.744000434875488,-53.89699935913086 C-10.744000434875488,-53.89699935913086 -15.842000007629395,-53.071998596191406 -15.842000007629395,-53.071998596191406 C-16.131000518798828,-55.04600143432617 -16.086999893188477,-56.97100067138672 -15.67199993133545,-58.50899887084961 C-15.239999771118164,-60.112998962402344 -14.475000381469727,-61.154998779296875 -13.572999954223633,-61.367000579833984 C-12.673999786376953,-61.573001861572266 -11.524999618530273,-60.98699951171875 -10.42199993133545,-59.742000579833984 C-9.102999687194824,-58.25 -8.013999938964844,-55.97800064086914 -7.434999942779541,-53.50699996948242 C-6.252999782562256,-48.4640007019043 -7.519000053405762,-44.19200134277344 -9.440999984741211,-43.74100112915039 C-10.246999740600586,-43.551998138427734 -10.746999740600586,-42.744998931884766 -10.557999610900879,-41.9379997253418 C-10.395999908447266,-41.24599838256836 -9.779999732971191,-40.78099822998047 -9.098999977111816,-40.78099822998047 C-8.986000061035156,-40.78099822998047 -8.869999885559082,-40.792999267578125 -8.755000114440918,-40.82099914550781 C-5.714000225067139,-41.534000396728516 -3.9200000762939453,-45.233001708984375 -3.984999895095825,-49.92499923706055 C-3.984999895095825,-49.92499923706055 12.291999816894531,-52.558998107910156 12.291999816894531,-52.558998107910156 C12.288000106811523,-52.840999603271484 12.276000022888184,-53.12099838256836 12.255000114440918,-53.4010009765625 C12.243000030517578,-53.56100082397461 12.22599983215332,-53.72100067138672 12.211999893188477,-53.880001068115234 C12.208999633789062,-53.90800094604492 12.206999778747559,-53.93199920654297 12.204000473022461,-53.95500183105469 C12.112000465393066,-54.54899978637695 11.984999656677246,-55.137001037597656 11.815999984741211,-55.7140007019043 C11.734999656677246,-55.98899841308594 11.645000457763672,-56.262001037597656 11.545999526977539,-56.53099822998047 C11.513999938964844,-56.6150016784668 11.480999946594238,-56.698001861572266 11.447999954223633,-56.78099822998047 C11.430000305175781,-56.814998626708984 11.35200023651123,-56.98899841308594 11.336000442504883,-57.025001525878906 C11.267999649047852,-57.165000915527344 11.189000129699707,-57.29899978637695 11.116000175476074,-57.433998107910156 C11.116000175476074,-57.433998107910156 7.078000068664551,-56.779998779296875 7.078000068664551,-56.779998779296875 C6.514999866485596,-61.04199981689453 7.697000026702881,-64.427001953125 9.394000053405762,-64.82599639892578 C11.32699966430664,-65.27100372314453 14.350000381469727,-62.007999420166016 15.532999992370605,-56.965999603271484 C16.71500015258789,-51.92300033569336 15.449000358581543,-47.6510009765625 13.527000427246094,-47.20000076293945 C12.720000267028809,-47.01100158691406 12.220000267028809,-46.20399856567383 12.40999984741211,-45.39699935913086 C12.571999549865723,-44.70500183105469 13.187999725341797,-44.2400016784668 13.869000434875488,-44.2400016784668 C13.982000350952148,-44.2400016784668 14.097000122070312,-44.25199890136719 14.213000297546387,-44.279998779296875 C17.308000564575195,-45.005001068115234 19.113000869750977,-48.82699966430664 18.97800064086914,-53.63999938964844 C18.97800064086914,-53.63999938964844 25.479000091552734,-54.69200134277344 25.479000091552734,-54.69200134277344 C25.479000091552734,-54.69200134277344 26.85300064086914,-48.44300079345703 26.85300064086914,-48.44300079345703 C28.26799964904785,-49.6150016784668 29.73200035095215,-50.67399978637695 31.285999298095703,-51.56800079345703 C31.285999298095703,-51.56800079345703 29.347999572753906,-60.382999420166016 29.347999572753906,-60.382999420166016 C29.347999572753906,-60.382999420166016 18.207000732421875,-58.58100128173828 18.207000732421875,-58.58100128173828 C16.4950008392334,-64.64099884033203 12.439000129699707,-68.62000274658203 8.710000038146973,-67.74500274658203 C5.177999973297119,-66.91600036621094 3.3259999752044678,-62.06399917602539 4.119999885559082,-56.301998138427734 C4.119999885559082,-56.301998138427734 -4.695000171661377,-54.875999450683594 -4.695000171661377,-54.875999450683594 C-5.422999858856201,-57.58000183105469 -6.642000198364258,-59.99599838256836 -8.175000190734863,-61.729000091552734 C-10.057000160217285,-63.858001708984375 -12.21500015258789,-64.76899719238281 -14.256999969482422,-64.28600311279297 C-16.297000885009766,-63.80799865722656 -17.827999114990234,-62.034000396728516 -18.569000244140625,-59.29100036621094 C-19.099000930786133,-57.32600021362305 -19.173999786376953,-54.994998931884766 -18.812999725341797,-52.59199905395508 C-18.812999725341797,-52.59199905395508 -27.797000885009766,-51.13800048828125 -27.797000885009766,-51.13800048828125 C-28.531999588012695,-53.76900100708008 -29.731000900268555,-56.117000579833984 -31.231000900268555,-57.81100082397461 C-33.1150016784668,-59.93899917602539 -35.275001525878906,-60.847999572753906 -37.31399917602539,-60.36800003051758 C-40.85900115966797,-59.5359992980957 -42.71099853515625,-54.650001525878906 -41.89400100708008,-48.856998443603516 C-41.89400100708008,-48.856998443603516 -56.426998138427734,-46.50699996948242 -56.426998138427734,-46.50699996948242 C-56.426998138427734,-46.50699996948242 -56.301998138427734,-45.810001373291016 -56.301998138427734,-45.810001373291016 C-58.29199981689453,-44.42399978637695 -62.11800003051758,-41.6150016784668 -64.24299621582031,-39.10100173950195 C-64.24299621582031,-39.10100173950195 -65.00599670410156,-38.20000076293945 -65.00599670410156,-38.20000076293945 C-65.00599670410156,-38.20000076293945 -64.79299926757812,-37.0369987487793 -64.79299926757812,-37.0369987487793 C-58.0359992980957,-0.039000000804662704 -47.34000015258789,65.60399627685547 -47.233001708984375,66.26200103759766 C-47.233001708984375,66.26200103759766 -46.847999572753906,68.62000274658203 -46.847999572753906,68.62000274658203 C-46.847999572753906,68.62000274658203 43.83000183105469,58.0099983215332 43.83000183105469,58.0099983215332 C43.83000183105469,58.0099983215332 51.643001556396484,46.729000091552734 51.643001556396484,46.729000091552734 C51.643001556396484,46.729000091552734 52.858001708984375,46.5890007019043 52.858001708984375,46.5890007019043 C52.858001708984375,46.5890007019043 46.5890007019043,18.062999725341797 46.5890007019043,18.062999725341797 C53.89799880981445,17.709999084472656 60.24800109863281,13.82800006866455 62.30799865722656,11.767999649047852 C63.5099983215332,10.5649995803833 65.00599670410156,9.067999839782715 55.23500061035156,-17.613000869750977z M41.00600051879883,53.30699920654297 C41.00600051879883,53.30699920654297 -42.68299865722656,63.099998474121094 -42.68299865722656,63.099998474121094 C-44.64099884033203,51.12900161743164 -53.6150016784668,-3.5199999809265137 -59.652000427246094,-36.71099853515625 C-58.409000396728516,-37.96500015258789 -56.75,-39.28799819946289 -55.319000244140625,-40.35499954223633 C-55.319000244140625,-40.35499954223633 -37.78099822998047,57.000999450683594 -37.78099822998047,57.000999450683594 C-37.78099822998047,57.000999450683594 45.0359992980957,47.487998962402344 45.0359992980957,47.487998962402344 C45.0359992980957,47.487998962402344 41.00600051879883,53.30699920654297 41.00600051879883,53.30699920654297z M43.40399932861328,13.963000297546387 C37.645999908447266,13.225000381469727 32.7599983215332,9.496000289916992 28.882999420166016,2.880000114440918 C17.65999984741211,-16.261999130249023 33.933998107910156,-31.694000244140625 34.63100051879883,-32.3390007019043 C34.63100051879883,-32.3390007019043 35.474998474121094,-33.11800003051758 35.474998474121094,-33.11800003051758 C35.474998474121094,-33.11800003051758 33.73099899291992,-41.04800033569336 33.73099899291992,-41.04800033569336 C36.8390007019043,-42.71200180053711 38.8120002746582,-42.757999420166016 39.95800018310547,-42.45800018310547 C41.189998626708984,-42.13800048828125 41.755001068115234,-41.34400177001953 41.85900115966797,-41.18299865722656 C50.70000076293945,-19.386999130249023 59.433998107910156,5 59.189998626708984,9.201000213623047 C57.50199890136719,10.625 50.94200134277344,14.932000160217285 43.40399932861328,13.963000297546387z"></path></g></g><g transform="matrix(1,0,0,1,18.135997772216797,30.11199951171875)" opacity="1" style="display: block;"><g opacity="1" transform="matrix(1,0,0,1,47.4119987487793,46.37200164794922)"><path stroke-linecap="butt" stroke-linejoin="miter" fill-opacity="0" stroke-miterlimit="10"  stroke-opacity="1" stroke-width="5" d=" M34.91299819946289,0.4059999883174896 C34.91299819946289,19.336999893188477 20.091999053955078,33.87200164794922 0.8109999895095825,33.87200164794922 C-18.47100067138672,33.87200164794922 -34.91299819946289,19.336999893188477 -34.91299819946289,0.4059999883174896 C-34.91299819946289,-18.524999618530273 -19.2810001373291,-33.87200164794922 0.0010000000474974513,-33.87200164794922 C19.281999588012695,-33.87200164794922 34.91299819946289,-18.524999618530273 34.91299819946289,0.4059999883174896z"></path></g></g><g transform="matrix(0.9908000826835632,0.13533343374729156,-0.13533343374729156,0.9908000826835632,23.81716537475586,23.760818481445312)" opacity="1" style="display: block;"><g opacity="1" transform="matrix(1,0,0,1,29.757999420166016,36.21099853515625)"><path  fill-opacity="1" d=" M5.951000213623047,-0.2029999941587448 C5.951000213623047,-0.2029999941587448 1.9930000305175781,-1.0230000019073486 1.9930000305175781,-1.0230000019073486 C1.9930000305175781,-1.0230000019073486 3.3550000190734863,-4.828999996185303 3.3550000190734863,-4.828999996185303 C3.634000062942505,-5.609000205993652 3.2279999256134033,-6.4679999351501465 2.447999954223633,-6.745999813079834 C1.6690000295639038,-7.0269999504089355 0.8090000152587891,-6.619999885559082 0.531000018119812,-5.840000152587891 C0.531000018119812,-5.840000152587891 -0.9729999899864197,-1.6380000114440918 -0.9729999899864197,-1.6380000114440918 C-0.9729999899864197,-1.6380000114440918 -5.3429999351501465,-2.5429999828338623 -5.3429999351501465,-2.5429999828338623 C-6.1539998054504395,-2.7139999866485596 -6.947999954223633,-2.188999891281128 -7.116000175476074,-1.378000020980835 C-7.283999919891357,-0.5669999718666077 -6.763000011444092,0.2280000001192093 -5.952000141143799,0.3959999978542328 C-5.952000141143799,0.3959999978542328 -1.99399995803833,1.215000033378601 -1.99399995803833,1.215000033378601 C-1.99399995803833,1.215000033378601 -3.3559999465942383,5.020999908447266 -3.3559999465942383,5.020999908447266 C-3.634999990463257,5.801000118255615 -3.2290000915527344,6.659999847412109 -2.4489998817443848,6.939000129699707 C-2.2820000648498535,6.999000072479248 -2.111999988555908,7.0269999504089355 -1.944000005722046,7.0269999504089355 C-1.3279999494552612,7.0269999504089355 -0.7509999871253967,6.644999980926514 -0.531000018119812,6.0320000648498535 C-0.531000018119812,6.0320000648498535 0.972000002861023,1.8300000429153442 0.972000002861023,1.8300000429153442 C0.972000002861023,1.8300000429153442 5.3429999351501465,2.7360000610351562 5.3429999351501465,2.7360000610351562 C5.445000171661377,2.756999969482422 5.547999858856201,2.7669999599456787 5.6479997634887695,2.7669999599456787 C6.34499979019165,2.7669999599456787 6.968999862670898,2.2790000438690186 7.116000175476074,1.5709999799728394 C7.283999919891357,0.7599999904632568 6.763000011444092,-0.03500000014901161 5.951000213623047,-0.2029999941587448z"></path></g><g opacity="1" transform="matrix(1,0,0,1,50.62699890136719,25.775999069213867)"><path  fill-opacity="1" d=" M5.951000213623047,-0.2029999941587448 C5.951000213623047,-0.2029999941587448 1.9930000305175781,-1.0230000019073486 1.9930000305175781,-1.0230000019073486 C1.9930000305175781,-1.0230000019073486 3.3550000190734863,-4.828000068664551 3.3550000190734863,-4.828000068664551 C3.634999990463257,-5.607999801635742 3.2290000915527344,-6.4670000076293945 2.4489998817443848,-6.745999813079834 C1.6679999828338623,-7.026000022888184 0.8100000023841858,-6.619999885559082 0.531000018119812,-5.839000225067139 C0.531000018119812,-5.839000225067139 -0.9729999899864197,-1.6380000114440918 -0.9729999899864197,-1.6380000114440918 C-0.9729999899864197,-1.6380000114440918 -5.3429999351501465,-2.5429999828338623 -5.3429999351501465,-2.5429999828338623 C-6.1539998054504395,-2.7119998931884766 -6.947000026702881,-2.188999891281128 -7.116000175476074,-1.378000020980835 C-7.283999919891357,-0.5669999718666077 -6.763000011444092,0.22699999809265137 -5.951000213623047,0.39500001072883606 C-5.951000213623047,0.39500001072883606 -1.9930000305175781,1.2139999866485596 -1.9930000305175781,1.2139999866485596 C-1.9930000305175781,1.2139999866485596 -3.3559999465942383,5.020999908447266 -3.3559999465942383,5.020999908447266 C-3.634999990463257,5.800000190734863 -3.2290000915527344,6.658999919891357 -2.4489998817443848,6.938000202178955 C-2.2820000648498535,6.998000144958496 -2.111999988555908,7.026000022888184 -1.944000005722046,7.026000022888184 C-1.3279999494552612,7.026000022888184 -0.7509999871253967,6.644000053405762 -0.531000018119812,6.031000137329102 C-0.531000018119812,6.031000137329102 0.972000002861023,1.8289999961853027 0.972000002861023,1.8289999961853027 C0.972000002861023,1.8289999961853027 5.3429999351501465,2.734999895095825 5.3429999351501465,2.734999895095825 C5.445000171661377,2.75600004196167 5.547999858856201,2.7660000324249268 5.6479997634887695,2.7660000324249268 C6.34499979019165,2.7660000324249268 6.968999862670898,2.2780001163482666 7.116000175476074,1.5700000524520874 C7.283999919891357,0.7590000033378601 6.763000011444092,-0.03500000014901161 5.951000213623047,-0.2029999941587448z"></path></g><g opacity="1" transform="matrix(1,0,0,1,0,0)"><g opacity="1" transform="matrix(1,0,0,1,50.06800079345703,48.01499938964844)"><path stroke-linecap="round" stroke-linejoin="round" fill-opacity="0"  stroke-opacity="1" stroke-width="3" d=" M10.041999816894531,-13.817999839782715 C10.041999816894531,-13.817999839782715 -6.238999843597412,-7.2210001945495605 -16.476999282836914,0.8659999966621399 C-16.476999282836914,0.8659999966621399 -8.87600040435791,13.819000244140625 5.257999897003174,7.573999881744385 C16.47599983215332,2.617000102996826 10.128999710083008,-13.425999641418457 10.128999710083008,-13.425999641418457"></path></g><g opacity="1" transform="matrix(1,0,0,1,50.06800079345703,48.01499938964844)"><path  fill-opacity="1" d=" M10.128000259399414,-13.425999641418457 C10.128000259399414,-13.425999641418457 10.041000366210938,-13.817999839782715 10.041000366210938,-13.817999839782715 C10.041000366210938,-13.817999839782715 3.2990000247955322,-11.07800006866455 -4.232999801635742,-6.9770002365112305 C-4.232999801635742,-6.9770002365112305 -2.3340001106262207,-3.000999927520752 -2.3340001106262207,-3.000999927520752 C-1.1779999732971191,-0.5809999704360962 -2.2119998931884766,2.3459999561309814 -4.632999897003174,3.503000020980835 C-7.053999900817871,4.6579999923706055 -9.979999542236328,3.622999906539917 -11.13599967956543,1.2020000219345093 C-11.13599967956543,1.2020000219345093 -12.184000015258789,-0.9900000095367432 -12.184000015258789,-0.9900000095367432 C-12.423999786376953,-1.2389999628067017 -12.661999702453613,-1.4919999837875366 -12.895999908447266,-1.746999979019165 C-14.142000198364258,-0.8989999890327454 -15.347999572753906,-0.027000000700354576 -16.47599983215332,0.8650000095367432 C-16.47599983215332,0.8650000095367432 -8.87600040435791,13.819000244140625 5.257999897003174,7.573999881744385 C16.47599983215332,2.617000102996826 10.128000259399414,-13.425999641418457 10.128000259399414,-13.425999641418457z"></path></g></g></g></g></svg>
